<mxfile host="app.diagrams.net" modified="2024-06-23T14:14:33.281Z" agent="Mozilla/5.0 (Windows NT 10.0; Win64; x64) AppleWebKit/537.36 (KHTML, like Gecko) Chrome/126.0.0.0 Safari/537.36" etag="4d_tEYHnawAfqJTEbCBq" version="24.6.2" type="device">
  <diagram name="Strona-1" id="i5fGreE41-q7YuLo0OTB">
    <mxGraphModel dx="890" dy="360" grid="1" gridSize="10" guides="1" tooltips="1" connect="1" arrows="1" fold="1" page="1" pageScale="1" pageWidth="827" pageHeight="1169" math="0" shadow="0">
      <root>
        <mxCell id="0" />
        <mxCell id="1" parent="0" />
        <mxCell id="mb-hIErEgklaRNoRJ_JB-1" value="&lt;b&gt;package &lt;/b&gt;Navigation Diagram" style="shape=umlFrame;whiteSpace=wrap;html=1;pointerEvents=0;recursiveResize=0;container=1;collapsible=0;width=170;height=30;" parent="1" vertex="1">
          <mxGeometry x="120" y="120" width="570" height="310" as="geometry" />
        </mxCell>
        <mxCell id="mb-hIErEgklaRNoRJ_JB-2" value="Bookswap home&amp;nbsp;" style="rounded=0;whiteSpace=wrap;html=1;" parent="mb-hIErEgklaRNoRJ_JB-1" vertex="1">
          <mxGeometry x="187" y="60" width="186" height="30" as="geometry" />
        </mxCell>
        <mxCell id="mb-hIErEgklaRNoRJ_JB-3" value="About Us&amp;nbsp;" style="rounded=0;whiteSpace=wrap;html=1;" parent="mb-hIErEgklaRNoRJ_JB-1" vertex="1">
          <mxGeometry x="20" y="120" width="140" height="30" as="geometry" />
        </mxCell>
        <mxCell id="mb-hIErEgklaRNoRJ_JB-4" value="Offer&amp;nbsp;" style="rounded=0;whiteSpace=wrap;html=1;" parent="mb-hIErEgklaRNoRJ_JB-1" vertex="1">
          <mxGeometry x="200" y="130" width="120" height="30" as="geometry" />
        </mxCell>
        <mxCell id="mb-hIErEgklaRNoRJ_JB-5" value="Control Panel&amp;nbsp;" style="rounded=0;whiteSpace=wrap;html=1;" parent="mb-hIErEgklaRNoRJ_JB-1" vertex="1">
          <mxGeometry x="27" y="180" width="160" height="30" as="geometry" />
        </mxCell>
        <mxCell id="mb-hIErEgklaRNoRJ_JB-6" value="Exchange&amp;nbsp;" style="rounded=0;whiteSpace=wrap;html=1;" parent="mb-hIErEgklaRNoRJ_JB-1" vertex="1">
          <mxGeometry x="200" y="250" width="150" height="30" as="geometry" />
        </mxCell>
        <mxCell id="mb-hIErEgklaRNoRJ_JB-7" value="Sign In&amp;nbsp;" style="rounded=0;whiteSpace=wrap;html=1;" parent="mb-hIErEgklaRNoRJ_JB-1" vertex="1">
          <mxGeometry x="370" y="100" width="130" height="30" as="geometry" />
        </mxCell>
        <mxCell id="mb-hIErEgklaRNoRJ_JB-8" value="Sign Up&amp;nbsp;" style="rounded=0;whiteSpace=wrap;html=1;" parent="mb-hIErEgklaRNoRJ_JB-1" vertex="1">
          <mxGeometry x="410" y="140" width="140" height="30" as="geometry" />
        </mxCell>
        <mxCell id="mb-hIErEgklaRNoRJ_JB-9" value="My Profile&amp;nbsp;" style="rounded=0;whiteSpace=wrap;html=1;" parent="mb-hIErEgklaRNoRJ_JB-1" vertex="1">
          <mxGeometry x="350" y="200" width="150" height="30" as="geometry" />
        </mxCell>
        <mxCell id="mb-hIErEgklaRNoRJ_JB-10" value="" style="endArrow=classic;html=1;rounded=0;exitX=0;exitY=0.5;exitDx=0;exitDy=0;entryX=0.5;entryY=0;entryDx=0;entryDy=0;" parent="mb-hIErEgklaRNoRJ_JB-1" source="mb-hIErEgklaRNoRJ_JB-2" target="mb-hIErEgklaRNoRJ_JB-3" edge="1">
          <mxGeometry width="50" height="50" relative="1" as="geometry">
            <mxPoint x="60" y="100" as="sourcePoint" />
            <mxPoint x="110" y="50" as="targetPoint" />
            <Array as="points">
              <mxPoint x="90" y="75" />
            </Array>
          </mxGeometry>
        </mxCell>
        <mxCell id="mb-hIErEgklaRNoRJ_JB-11" value="" style="endArrow=classic;html=1;rounded=0;exitX=0.39;exitY=1.024;exitDx=0;exitDy=0;exitPerimeter=0;entryX=0.5;entryY=0;entryDx=0;entryDy=0;" parent="mb-hIErEgklaRNoRJ_JB-1" source="mb-hIErEgklaRNoRJ_JB-2" target="mb-hIErEgklaRNoRJ_JB-4" edge="1">
          <mxGeometry width="50" height="50" relative="1" as="geometry">
            <mxPoint x="250" y="230" as="sourcePoint" />
            <mxPoint x="300" y="180" as="targetPoint" />
          </mxGeometry>
        </mxCell>
        <mxCell id="mb-hIErEgklaRNoRJ_JB-13" value="" style="endArrow=classic;html=1;rounded=0;entryX=0;entryY=0.5;entryDx=0;entryDy=0;exitX=0.861;exitY=0.998;exitDx=0;exitDy=0;exitPerimeter=0;" parent="mb-hIErEgklaRNoRJ_JB-1" source="mb-hIErEgklaRNoRJ_JB-2" target="mb-hIErEgklaRNoRJ_JB-7" edge="1">
          <mxGeometry width="50" height="50" relative="1" as="geometry">
            <mxPoint x="290" y="230" as="sourcePoint" />
            <mxPoint x="340" y="180" as="targetPoint" />
            <Array as="points">
              <mxPoint x="347" y="115" />
            </Array>
          </mxGeometry>
        </mxCell>
        <mxCell id="mb-hIErEgklaRNoRJ_JB-14" value="" style="endArrow=classic;html=1;rounded=0;exitX=0.25;exitY=0;exitDx=0;exitDy=0;entryX=1;entryY=0.5;entryDx=0;entryDy=0;" parent="mb-hIErEgklaRNoRJ_JB-1" source="mb-hIErEgklaRNoRJ_JB-7" target="mb-hIErEgklaRNoRJ_JB-2" edge="1">
          <mxGeometry width="50" height="50" relative="1" as="geometry">
            <mxPoint x="390" y="100" as="sourcePoint" />
            <mxPoint x="440" y="50" as="targetPoint" />
            <Array as="points">
              <mxPoint x="403" y="75" />
            </Array>
          </mxGeometry>
        </mxCell>
        <mxCell id="mb-hIErEgklaRNoRJ_JB-16" value="" style="endArrow=classic;html=1;rounded=0;entryX=0;entryY=0.5;entryDx=0;entryDy=0;exitX=0.155;exitY=1.08;exitDx=0;exitDy=0;exitPerimeter=0;" parent="mb-hIErEgklaRNoRJ_JB-1" source="mb-hIErEgklaRNoRJ_JB-7" target="mb-hIErEgklaRNoRJ_JB-8" edge="1">
          <mxGeometry width="50" height="50" relative="1" as="geometry">
            <mxPoint x="290" y="220" as="sourcePoint" />
            <mxPoint x="340" y="170" as="targetPoint" />
            <Array as="points">
              <mxPoint x="390" y="155" />
            </Array>
          </mxGeometry>
        </mxCell>
        <mxCell id="mb-hIErEgklaRNoRJ_JB-17" value="" style="endArrow=classic;html=1;rounded=0;exitX=0.856;exitY=-0.027;exitDx=0;exitDy=0;exitPerimeter=0;entryX=1;entryY=0.5;entryDx=0;entryDy=0;" parent="mb-hIErEgklaRNoRJ_JB-1" source="mb-hIErEgklaRNoRJ_JB-8" target="mb-hIErEgklaRNoRJ_JB-7" edge="1">
          <mxGeometry width="50" height="50" relative="1" as="geometry">
            <mxPoint x="510" y="120" as="sourcePoint" />
            <mxPoint x="560" y="70" as="targetPoint" />
            <Array as="points">
              <mxPoint x="530" y="115" />
            </Array>
          </mxGeometry>
        </mxCell>
        <mxCell id="mb-hIErEgklaRNoRJ_JB-19" value="" style="endArrow=classic;html=1;rounded=0;exitX=0.5;exitY=1;exitDx=0;exitDy=0;entryX=0.404;entryY=-0.076;entryDx=0;entryDy=0;entryPerimeter=0;" parent="mb-hIErEgklaRNoRJ_JB-1" source="mb-hIErEgklaRNoRJ_JB-4" target="mb-hIErEgklaRNoRJ_JB-6" edge="1">
          <mxGeometry width="50" height="50" relative="1" as="geometry">
            <mxPoint x="280" y="230" as="sourcePoint" />
            <mxPoint x="330" y="180" as="targetPoint" />
          </mxGeometry>
        </mxCell>
        <mxCell id="mb-hIErEgklaRNoRJ_JB-20" value="" style="endArrow=classic;html=1;rounded=0;entryX=0.75;entryY=1;entryDx=0;entryDy=0;" parent="mb-hIErEgklaRNoRJ_JB-1" target="mb-hIErEgklaRNoRJ_JB-2" edge="1">
          <mxGeometry width="50" height="50" relative="1" as="geometry">
            <mxPoint x="327" y="249" as="sourcePoint" />
            <mxPoint x="480" y="250" as="targetPoint" />
          </mxGeometry>
        </mxCell>
        <mxCell id="mb-hIErEgklaRNoRJ_JB-21" value="" style="endArrow=classic;html=1;rounded=0;exitX=0.5;exitY=0;exitDx=0;exitDy=0;entryX=0;entryY=0.5;entryDx=0;entryDy=0;" parent="mb-hIErEgklaRNoRJ_JB-1" source="mb-hIErEgklaRNoRJ_JB-7" target="mb-hIErEgklaRNoRJ_JB-5" edge="1">
          <mxGeometry width="50" height="50" relative="1" as="geometry">
            <mxPoint x="460" y="80" as="sourcePoint" />
            <mxPoint x="510" y="30" as="targetPoint" />
            <Array as="points">
              <mxPoint x="435" y="40" />
              <mxPoint x="10" y="40" />
              <mxPoint x="10" y="120" />
              <mxPoint x="10" y="195" />
            </Array>
          </mxGeometry>
        </mxCell>
        <mxCell id="mb-hIErEgklaRNoRJ_JB-23" value="" style="endArrow=classic;startArrow=classic;html=1;rounded=0;entryX=0.819;entryY=1.013;entryDx=0;entryDy=0;entryPerimeter=0;" parent="mb-hIErEgklaRNoRJ_JB-1" target="mb-hIErEgklaRNoRJ_JB-2" edge="1">
          <mxGeometry width="50" height="50" relative="1" as="geometry">
            <mxPoint x="376" y="200" as="sourcePoint" />
            <mxPoint x="520" y="240" as="targetPoint" />
            <Array as="points">
              <mxPoint x="376" y="170" />
              <mxPoint x="340" y="170" />
            </Array>
          </mxGeometry>
        </mxCell>
        <mxCell id="mb-hIErEgklaRNoRJ_JB-24" value="" style="endArrow=classic;html=1;rounded=0;exitX=1;exitY=0.5;exitDx=0;exitDy=0;entryX=0.5;entryY=1;entryDx=0;entryDy=0;" parent="mb-hIErEgklaRNoRJ_JB-1" source="mb-hIErEgklaRNoRJ_JB-6" target="mb-hIErEgklaRNoRJ_JB-9" edge="1">
          <mxGeometry width="50" height="50" relative="1" as="geometry">
            <mxPoint x="420" y="290" as="sourcePoint" />
            <mxPoint x="470" y="240" as="targetPoint" />
            <Array as="points">
              <mxPoint x="425" y="265" />
            </Array>
          </mxGeometry>
        </mxCell>
        <mxCell id="URukfjZAChJFvkBxV5kh-1" value="" style="shape=image;verticalLabelPosition=bottom;labelBackgroundColor=default;verticalAlign=top;aspect=fixed;imageAspect=0;image=data:image/png,iVBORw0KGgoAAAANSUhEUgAAABAAAAAQCAYAAAAf8/9hAAAAAXNSR0IArs4c6QAAAAlwSFlzAAALEwAACxMBAJqcGAAAAAd0SU1FB9gFAQkHCXupyRsAAAAZdEVYdENvbW1lbnQAQ3JlYXRlZCB3aXRoIEdJTVBXgQ4XAAAEG0lEQVQ4EQEQBO/7AQAAAAAAAAAAAAAA/wAAAAAAAAAAAAAAAAAAAAAAAAAAAAAAAAAAAAAAAAAAAAAAAAAAAAAAAAAAAAAAAQAAAAAAAAAAAAAAAAAAAAD/AAAAAAAAAAAAAAAAAAAAAAAAAAAAAAAAAAAAAAAAAAAAAAAAAAAAAAAAAP8AAAAAAAAAAAIAAAAAAAAAAAAAAABAfwAARoIAAAAAAAAAAAAAAAAAAAAAAAAAAAAAAAAAAAAAAABFgAAAAAAAAAAAAAAAAAAAAAAAAAAAAAAAAAAA/0V/AAAAAAAAAAAAAAAAAAAAAAAAAAAAAAAAAAAAAAAAAAAAAAAAAAAAAAD/AAAAAAAAAAAAAAAAAAAAAAAAAAD/CzoAAAAAAAAAAAAAAAAAAAAAAAAAAAAAAAAAAAAAAAAAAAAAAAAAAAAAAP8AAAAAAAAAAAEAAAAAAAAAAAAAAP8AAAABAAAAAAAAAAAAAAAARX8AAAECAAAA/wAAuoAAAAAAAAAAAAAAAAAA/wAAAAEAAAAAAgAAAAAAAAAAAAAAAAAlewAAAAAAAAAAAAAAAADWugAA48gAAOy7AAAAAAAAAAAAAAAAAAAAAAAAAAAAAAAAAAABAAAAAAAAAAAAAAD/ACiAAQAGGgAA/vQAAPLqAAARIQAA0WcAAAAAAAAAAAAAAAAAAAAAAAAAAP8AAAABAAAAAAIAAAAAAAAAAAAAAAAAAQUAAAH/AAABBQAABf4AANFnAAAAAAAAAAAAAAAAAAAAAAC3OwAAAAAAAAAAAAAAAAAAAgAAAAAAAAAAAAAAAAAGEQAA/PQAAAD+AAADBwAAAAAAAAAAAAAAAAAAAAAAtjwAAOv6AAAAAAAAAAAAAAAAAAAEAAAAAAAAAAAAAAAAAAADAAD99QAABRcAAAYOAAAAAAAAAAAAAAAAALE6AADN7wAAwOkAAAAAAAAAAAAAAAAAAAIAAAAAAAAAAAAAAAAAAAEAAP77AAD/AAAAAw4AAAAAAAAAAAAAAAAA7/sAAHzU/wB1JQAAAAAAAAAAAAAAAAAAAgAAAAAAAAAAAAAAAAAA/AAA/vkAAP7/AAAAAQAAAAAAAAAAAAAAAAANBAAAuD0BAP8EAAAAAAAAAAAAAAAAAAACAAAAAAAAAAAAAAAAAPDOAAD33wAABAAAAAD/AAAAAAAAAAAAAAAAAAoDAAD2/QAAy+4AAAAAAAAAAAAAAAAAAAAAAAAAAAAAAAAAAP////8A////AAA7nQAAKo0AAAAAAAAAAAAAAAAAji8AAFUcAAD///8AAAAA/wAAAAAAAAAAAQAAAAAAAAAAAAAA/wAAAAAAAAAAAAAAAAAAAAAAAAAAAAAAAAAAAAAAAAAAAAAAAAAAAAAAAAAAAAAAAQAAAACwXlNWjGvfdAAAAABJRU5ErkJggg==;" vertex="1" parent="mb-hIErEgklaRNoRJ_JB-1">
          <mxGeometry x="150" y="187" width="16" height="16" as="geometry" />
        </mxCell>
        <mxCell id="URukfjZAChJFvkBxV5kh-2" value="" style="shape=image;verticalLabelPosition=bottom;labelBackgroundColor=default;verticalAlign=top;aspect=fixed;imageAspect=0;image=data:image/png,iVBORw0KGgoAAAANSUhEUgAAABAAAAAQCAYAAAAf8/9hAAAAAXNSR0IArs4c6QAAAAlwSFlzAAALEwAACxMBAJqcGAAAAAd0SU1FB9gFAQkHCXupyRsAAAAZdEVYdENvbW1lbnQAQ3JlYXRlZCB3aXRoIEdJTVBXgQ4XAAAEG0lEQVQ4EQEQBO/7AQAAAAAAAAAAAAAA/wAAAAAAAAAAAAAAAAAAAAAAAAAAAAAAAAAAAAAAAAAAAAAAAAAAAAAAAAAAAAAAAQAAAAAAAAAAAAAAAAAAAAD/AAAAAAAAAAAAAAAAAAAAAAAAAAAAAAAAAAAAAAAAAAAAAAAAAAAAAAAAAP8AAAAAAAAAAAIAAAAAAAAAAAAAAABAfwAARoIAAAAAAAAAAAAAAAAAAAAAAAAAAAAAAAAAAAAAAABFgAAAAAAAAAAAAAAAAAAAAAAAAAAAAAAAAAAA/0V/AAAAAAAAAAAAAAAAAAAAAAAAAAAAAAAAAAAAAAAAAAAAAAAAAAAAAAD/AAAAAAAAAAAAAAAAAAAAAAAAAAD/CzoAAAAAAAAAAAAAAAAAAAAAAAAAAAAAAAAAAAAAAAAAAAAAAAAAAAAAAP8AAAAAAAAAAAEAAAAAAAAAAAAAAP8AAAABAAAAAAAAAAAAAAAARX8AAAECAAAA/wAAuoAAAAAAAAAAAAAAAAAA/wAAAAEAAAAAAgAAAAAAAAAAAAAAAAAlewAAAAAAAAAAAAAAAADWugAA48gAAOy7AAAAAAAAAAAAAAAAAAAAAAAAAAAAAAAAAAABAAAAAAAAAAAAAAD/ACiAAQAGGgAA/vQAAPLqAAARIQAA0WcAAAAAAAAAAAAAAAAAAAAAAAAAAP8AAAABAAAAAAIAAAAAAAAAAAAAAAAAAQUAAAH/AAABBQAABf4AANFnAAAAAAAAAAAAAAAAAAAAAAC3OwAAAAAAAAAAAAAAAAAAAgAAAAAAAAAAAAAAAAAGEQAA/PQAAAD+AAADBwAAAAAAAAAAAAAAAAAAAAAAtjwAAOv6AAAAAAAAAAAAAAAAAAAEAAAAAAAAAAAAAAAAAAADAAD99QAABRcAAAYOAAAAAAAAAAAAAAAAALE6AADN7wAAwOkAAAAAAAAAAAAAAAAAAAIAAAAAAAAAAAAAAAAAAAEAAP77AAD/AAAAAw4AAAAAAAAAAAAAAAAA7/sAAHzU/wB1JQAAAAAAAAAAAAAAAAAAAgAAAAAAAAAAAAAAAAAA/AAA/vkAAP7/AAAAAQAAAAAAAAAAAAAAAAANBAAAuD0BAP8EAAAAAAAAAAAAAAAAAAACAAAAAAAAAAAAAAAAAPDOAAD33wAABAAAAAD/AAAAAAAAAAAAAAAAAAoDAAD2/QAAy+4AAAAAAAAAAAAAAAAAAAAAAAAAAAAAAAAAAP////8A////AAA7nQAAKo0AAAAAAAAAAAAAAAAAji8AAFUcAAD///8AAAAA/wAAAAAAAAAAAQAAAAAAAAAAAAAA/wAAAAAAAAAAAAAAAAAAAAAAAAAAAAAAAAAAAAAAAAAAAAAAAAAAAAAAAAAAAAAAAQAAAACwXlNWjGvfdAAAAABJRU5ErkJggg==;" vertex="1" parent="mb-hIErEgklaRNoRJ_JB-1">
          <mxGeometry x="130" y="127" width="16" height="16" as="geometry" />
        </mxCell>
        <mxCell id="URukfjZAChJFvkBxV5kh-3" value="" style="shape=image;verticalLabelPosition=bottom;labelBackgroundColor=default;verticalAlign=top;aspect=fixed;imageAspect=0;image=data:image/png,iVBORw0KGgoAAAANSUhEUgAAABAAAAAQCAYAAAAf8/9hAAAAAXNSR0IArs4c6QAAAAlwSFlzAAALEwAACxMBAJqcGAAAAAd0SU1FB9gFAQkHCXupyRsAAAAZdEVYdENvbW1lbnQAQ3JlYXRlZCB3aXRoIEdJTVBXgQ4XAAAEG0lEQVQ4EQEQBO/7AQAAAAAAAAAAAAAA/wAAAAAAAAAAAAAAAAAAAAAAAAAAAAAAAAAAAAAAAAAAAAAAAAAAAAAAAAAAAAAAAQAAAAAAAAAAAAAAAAAAAAD/AAAAAAAAAAAAAAAAAAAAAAAAAAAAAAAAAAAAAAAAAAAAAAAAAAAAAAAAAP8AAAAAAAAAAAIAAAAAAAAAAAAAAABAfwAARoIAAAAAAAAAAAAAAAAAAAAAAAAAAAAAAAAAAAAAAABFgAAAAAAAAAAAAAAAAAAAAAAAAAAAAAAAAAAA/0V/AAAAAAAAAAAAAAAAAAAAAAAAAAAAAAAAAAAAAAAAAAAAAAAAAAAAAAD/AAAAAAAAAAAAAAAAAAAAAAAAAAD/CzoAAAAAAAAAAAAAAAAAAAAAAAAAAAAAAAAAAAAAAAAAAAAAAAAAAAAAAP8AAAAAAAAAAAEAAAAAAAAAAAAAAP8AAAABAAAAAAAAAAAAAAAARX8AAAECAAAA/wAAuoAAAAAAAAAAAAAAAAAA/wAAAAEAAAAAAgAAAAAAAAAAAAAAAAAlewAAAAAAAAAAAAAAAADWugAA48gAAOy7AAAAAAAAAAAAAAAAAAAAAAAAAAAAAAAAAAABAAAAAAAAAAAAAAD/ACiAAQAGGgAA/vQAAPLqAAARIQAA0WcAAAAAAAAAAAAAAAAAAAAAAAAAAP8AAAABAAAAAAIAAAAAAAAAAAAAAAAAAQUAAAH/AAABBQAABf4AANFnAAAAAAAAAAAAAAAAAAAAAAC3OwAAAAAAAAAAAAAAAAAAAgAAAAAAAAAAAAAAAAAGEQAA/PQAAAD+AAADBwAAAAAAAAAAAAAAAAAAAAAAtjwAAOv6AAAAAAAAAAAAAAAAAAAEAAAAAAAAAAAAAAAAAAADAAD99QAABRcAAAYOAAAAAAAAAAAAAAAAALE6AADN7wAAwOkAAAAAAAAAAAAAAAAAAAIAAAAAAAAAAAAAAAAAAAEAAP77AAD/AAAAAw4AAAAAAAAAAAAAAAAA7/sAAHzU/wB1JQAAAAAAAAAAAAAAAAAAAgAAAAAAAAAAAAAAAAAA/AAA/vkAAP7/AAAAAQAAAAAAAAAAAAAAAAANBAAAuD0BAP8EAAAAAAAAAAAAAAAAAAACAAAAAAAAAAAAAAAAAPDOAAD33wAABAAAAAD/AAAAAAAAAAAAAAAAAAoDAAD2/QAAy+4AAAAAAAAAAAAAAAAAAAAAAAAAAAAAAAAAAP////8A////AAA7nQAAKo0AAAAAAAAAAAAAAAAAji8AAFUcAAD///8AAAAA/wAAAAAAAAAAAQAAAAAAAAAAAAAA/wAAAAAAAAAAAAAAAAAAAAAAAAAAAAAAAAAAAAAAAAAAAAAAAAAAAAAAAAAAAAAAAQAAAACwXlNWjGvfdAAAAABJRU5ErkJggg==;" vertex="1" parent="mb-hIErEgklaRNoRJ_JB-1">
          <mxGeometry x="340" y="67" width="16" height="16" as="geometry" />
        </mxCell>
        <mxCell id="URukfjZAChJFvkBxV5kh-4" value="" style="shape=image;verticalLabelPosition=bottom;labelBackgroundColor=default;verticalAlign=top;aspect=fixed;imageAspect=0;image=data:image/png,iVBORw0KGgoAAAANSUhEUgAAABAAAAAQCAYAAAAf8/9hAAAAAXNSR0IArs4c6QAAAAlwSFlzAAALEwAACxMBAJqcGAAAAAd0SU1FB9gFAQkHCXupyRsAAAAZdEVYdENvbW1lbnQAQ3JlYXRlZCB3aXRoIEdJTVBXgQ4XAAAEG0lEQVQ4EQEQBO/7AQAAAAAAAAAAAAAA/wAAAAAAAAAAAAAAAAAAAAAAAAAAAAAAAAAAAAAAAAAAAAAAAAAAAAAAAAAAAAAAAQAAAAAAAAAAAAAAAAAAAAD/AAAAAAAAAAAAAAAAAAAAAAAAAAAAAAAAAAAAAAAAAAAAAAAAAAAAAAAAAP8AAAAAAAAAAAIAAAAAAAAAAAAAAABAfwAARoIAAAAAAAAAAAAAAAAAAAAAAAAAAAAAAAAAAAAAAABFgAAAAAAAAAAAAAAAAAAAAAAAAAAAAAAAAAAA/0V/AAAAAAAAAAAAAAAAAAAAAAAAAAAAAAAAAAAAAAAAAAAAAAAAAAAAAAD/AAAAAAAAAAAAAAAAAAAAAAAAAAD/CzoAAAAAAAAAAAAAAAAAAAAAAAAAAAAAAAAAAAAAAAAAAAAAAAAAAAAAAP8AAAAAAAAAAAEAAAAAAAAAAAAAAP8AAAABAAAAAAAAAAAAAAAARX8AAAECAAAA/wAAuoAAAAAAAAAAAAAAAAAA/wAAAAEAAAAAAgAAAAAAAAAAAAAAAAAlewAAAAAAAAAAAAAAAADWugAA48gAAOy7AAAAAAAAAAAAAAAAAAAAAAAAAAAAAAAAAAABAAAAAAAAAAAAAAD/ACiAAQAGGgAA/vQAAPLqAAARIQAA0WcAAAAAAAAAAAAAAAAAAAAAAAAAAP8AAAABAAAAAAIAAAAAAAAAAAAAAAAAAQUAAAH/AAABBQAABf4AANFnAAAAAAAAAAAAAAAAAAAAAAC3OwAAAAAAAAAAAAAAAAAAAgAAAAAAAAAAAAAAAAAGEQAA/PQAAAD+AAADBwAAAAAAAAAAAAAAAAAAAAAAtjwAAOv6AAAAAAAAAAAAAAAAAAAEAAAAAAAAAAAAAAAAAAADAAD99QAABRcAAAYOAAAAAAAAAAAAAAAAALE6AADN7wAAwOkAAAAAAAAAAAAAAAAAAAIAAAAAAAAAAAAAAAAAAAEAAP77AAD/AAAAAw4AAAAAAAAAAAAAAAAA7/sAAHzU/wB1JQAAAAAAAAAAAAAAAAAAAgAAAAAAAAAAAAAAAAAA/AAA/vkAAP7/AAAAAQAAAAAAAAAAAAAAAAANBAAAuD0BAP8EAAAAAAAAAAAAAAAAAAACAAAAAAAAAAAAAAAAAPDOAAD33wAABAAAAAD/AAAAAAAAAAAAAAAAAAoDAAD2/QAAy+4AAAAAAAAAAAAAAAAAAAAAAAAAAAAAAAAAAP////8A////AAA7nQAAKo0AAAAAAAAAAAAAAAAAji8AAFUcAAD///8AAAAA/wAAAAAAAAAAAQAAAAAAAAAAAAAA/wAAAAAAAAAAAAAAAAAAAAAAAAAAAAAAAAAAAAAAAAAAAAAAAAAAAAAAAAAAAAAAAQAAAACwXlNWjGvfdAAAAABJRU5ErkJggg==;" vertex="1" parent="mb-hIErEgklaRNoRJ_JB-1">
          <mxGeometry x="286" y="137" width="16" height="16" as="geometry" />
        </mxCell>
        <mxCell id="URukfjZAChJFvkBxV5kh-5" value="" style="shape=image;verticalLabelPosition=bottom;labelBackgroundColor=default;verticalAlign=top;aspect=fixed;imageAspect=0;image=data:image/png,iVBORw0KGgoAAAANSUhEUgAAABAAAAAQCAYAAAAf8/9hAAAAAXNSR0IArs4c6QAAAAlwSFlzAAALEwAACxMBAJqcGAAAAAd0SU1FB9gFAQkHCXupyRsAAAAZdEVYdENvbW1lbnQAQ3JlYXRlZCB3aXRoIEdJTVBXgQ4XAAAEG0lEQVQ4EQEQBO/7AQAAAAAAAAAAAAAA/wAAAAAAAAAAAAAAAAAAAAAAAAAAAAAAAAAAAAAAAAAAAAAAAAAAAAAAAAAAAAAAAQAAAAAAAAAAAAAAAAAAAAD/AAAAAAAAAAAAAAAAAAAAAAAAAAAAAAAAAAAAAAAAAAAAAAAAAAAAAAAAAP8AAAAAAAAAAAIAAAAAAAAAAAAAAABAfwAARoIAAAAAAAAAAAAAAAAAAAAAAAAAAAAAAAAAAAAAAABFgAAAAAAAAAAAAAAAAAAAAAAAAAAAAAAAAAAA/0V/AAAAAAAAAAAAAAAAAAAAAAAAAAAAAAAAAAAAAAAAAAAAAAAAAAAAAAD/AAAAAAAAAAAAAAAAAAAAAAAAAAD/CzoAAAAAAAAAAAAAAAAAAAAAAAAAAAAAAAAAAAAAAAAAAAAAAAAAAAAAAP8AAAAAAAAAAAEAAAAAAAAAAAAAAP8AAAABAAAAAAAAAAAAAAAARX8AAAECAAAA/wAAuoAAAAAAAAAAAAAAAAAA/wAAAAEAAAAAAgAAAAAAAAAAAAAAAAAlewAAAAAAAAAAAAAAAADWugAA48gAAOy7AAAAAAAAAAAAAAAAAAAAAAAAAAAAAAAAAAABAAAAAAAAAAAAAAD/ACiAAQAGGgAA/vQAAPLqAAARIQAA0WcAAAAAAAAAAAAAAAAAAAAAAAAAAP8AAAABAAAAAAIAAAAAAAAAAAAAAAAAAQUAAAH/AAABBQAABf4AANFnAAAAAAAAAAAAAAAAAAAAAAC3OwAAAAAAAAAAAAAAAAAAAgAAAAAAAAAAAAAAAAAGEQAA/PQAAAD+AAADBwAAAAAAAAAAAAAAAAAAAAAAtjwAAOv6AAAAAAAAAAAAAAAAAAAEAAAAAAAAAAAAAAAAAAADAAD99QAABRcAAAYOAAAAAAAAAAAAAAAAALE6AADN7wAAwOkAAAAAAAAAAAAAAAAAAAIAAAAAAAAAAAAAAAAAAAEAAP77AAD/AAAAAw4AAAAAAAAAAAAAAAAA7/sAAHzU/wB1JQAAAAAAAAAAAAAAAAAAAgAAAAAAAAAAAAAAAAAA/AAA/vkAAP7/AAAAAQAAAAAAAAAAAAAAAAANBAAAuD0BAP8EAAAAAAAAAAAAAAAAAAACAAAAAAAAAAAAAAAAAPDOAAD33wAABAAAAAD/AAAAAAAAAAAAAAAAAAoDAAD2/QAAy+4AAAAAAAAAAAAAAAAAAAAAAAAAAAAAAAAAAP////8A////AAA7nQAAKo0AAAAAAAAAAAAAAAAAji8AAFUcAAD///8AAAAA/wAAAAAAAAAAAQAAAAAAAAAAAAAA/wAAAAAAAAAAAAAAAAAAAAAAAAAAAAAAAAAAAAAAAAAAAAAAAAAAAAAAAAAAAAAAAQAAAACwXlNWjGvfdAAAAABJRU5ErkJggg==;" vertex="1" parent="mb-hIErEgklaRNoRJ_JB-1">
          <mxGeometry x="310" y="257" width="16" height="16" as="geometry" />
        </mxCell>
        <mxCell id="URukfjZAChJFvkBxV5kh-6" value="" style="shape=image;verticalLabelPosition=bottom;labelBackgroundColor=default;verticalAlign=top;aspect=fixed;imageAspect=0;image=data:image/png,iVBORw0KGgoAAAANSUhEUgAAABAAAAAQCAYAAAAf8/9hAAAAAXNSR0IArs4c6QAAAAlwSFlzAAALEwAACxMBAJqcGAAAAAd0SU1FB9gFAQkHCXupyRsAAAAZdEVYdENvbW1lbnQAQ3JlYXRlZCB3aXRoIEdJTVBXgQ4XAAAEG0lEQVQ4EQEQBO/7AQAAAAAAAAAAAAAA/wAAAAAAAAAAAAAAAAAAAAAAAAAAAAAAAAAAAAAAAAAAAAAAAAAAAAAAAAAAAAAAAQAAAAAAAAAAAAAAAAAAAAD/AAAAAAAAAAAAAAAAAAAAAAAAAAAAAAAAAAAAAAAAAAAAAAAAAAAAAAAAAP8AAAAAAAAAAAIAAAAAAAAAAAAAAABAfwAARoIAAAAAAAAAAAAAAAAAAAAAAAAAAAAAAAAAAAAAAABFgAAAAAAAAAAAAAAAAAAAAAAAAAAAAAAAAAAA/0V/AAAAAAAAAAAAAAAAAAAAAAAAAAAAAAAAAAAAAAAAAAAAAAAAAAAAAAD/AAAAAAAAAAAAAAAAAAAAAAAAAAD/CzoAAAAAAAAAAAAAAAAAAAAAAAAAAAAAAAAAAAAAAAAAAAAAAAAAAAAAAP8AAAAAAAAAAAEAAAAAAAAAAAAAAP8AAAABAAAAAAAAAAAAAAAARX8AAAECAAAA/wAAuoAAAAAAAAAAAAAAAAAA/wAAAAEAAAAAAgAAAAAAAAAAAAAAAAAlewAAAAAAAAAAAAAAAADWugAA48gAAOy7AAAAAAAAAAAAAAAAAAAAAAAAAAAAAAAAAAABAAAAAAAAAAAAAAD/ACiAAQAGGgAA/vQAAPLqAAARIQAA0WcAAAAAAAAAAAAAAAAAAAAAAAAAAP8AAAABAAAAAAIAAAAAAAAAAAAAAAAAAQUAAAH/AAABBQAABf4AANFnAAAAAAAAAAAAAAAAAAAAAAC3OwAAAAAAAAAAAAAAAAAAAgAAAAAAAAAAAAAAAAAGEQAA/PQAAAD+AAADBwAAAAAAAAAAAAAAAAAAAAAAtjwAAOv6AAAAAAAAAAAAAAAAAAAEAAAAAAAAAAAAAAAAAAADAAD99QAABRcAAAYOAAAAAAAAAAAAAAAAALE6AADN7wAAwOkAAAAAAAAAAAAAAAAAAAIAAAAAAAAAAAAAAAAAAAEAAP77AAD/AAAAAw4AAAAAAAAAAAAAAAAA7/sAAHzU/wB1JQAAAAAAAAAAAAAAAAAAAgAAAAAAAAAAAAAAAAAA/AAA/vkAAP7/AAAAAQAAAAAAAAAAAAAAAAANBAAAuD0BAP8EAAAAAAAAAAAAAAAAAAACAAAAAAAAAAAAAAAAAPDOAAD33wAABAAAAAD/AAAAAAAAAAAAAAAAAAoDAAD2/QAAy+4AAAAAAAAAAAAAAAAAAAAAAAAAAAAAAAAAAP////8A////AAA7nQAAKo0AAAAAAAAAAAAAAAAAji8AAFUcAAD///8AAAAA/wAAAAAAAAAAAQAAAAAAAAAAAAAA/wAAAAAAAAAAAAAAAAAAAAAAAAAAAAAAAAAAAAAAAAAAAAAAAAAAAAAAAAAAAAAAAQAAAACwXlNWjGvfdAAAAABJRU5ErkJggg==;" vertex="1" parent="mb-hIErEgklaRNoRJ_JB-1">
          <mxGeometry x="460" y="207" width="16" height="16" as="geometry" />
        </mxCell>
        <mxCell id="URukfjZAChJFvkBxV5kh-8" value="" style="shape=image;verticalLabelPosition=bottom;labelBackgroundColor=default;verticalAlign=top;aspect=fixed;imageAspect=0;image=data:image/png,iVBORw0KGgoAAAANSUhEUgAAABAAAAAQCAYAAAAf8/9hAAAAAXNSR0IArs4c6QAAAAlwSFlzAAALEwAACxMBAJqcGAAAAAd0SU1FB9gFAQkHCXupyRsAAAAZdEVYdENvbW1lbnQAQ3JlYXRlZCB3aXRoIEdJTVBXgQ4XAAAEG0lEQVQ4EQEQBO/7AQAAAAAAAAAAAAAA/wAAAAAAAAAAAAAAAAAAAAAAAAAAAAAAAAAAAAAAAAAAAAAAAAAAAAAAAAAAAAAAAQAAAAAAAAAAAAAAAAAAAAD/AAAAAAAAAAAAAAAAAAAAAAAAAAAAAAAAAAAAAAAAAAAAAAAAAAAAAAAAAP8AAAAAAAAAAAIAAAAAAAAAAAAAAABAfwAARoIAAAAAAAAAAAAAAAAAAAAAAAAAAAAAAAAAAAAAAABFgAAAAAAAAAAAAAAAAAAAAAAAAAAAAAAAAAAA/0V/AAAAAAAAAAAAAAAAAAAAAAAAAAAAAAAAAAAAAAAAAAAAAAAAAAAAAAD/AAAAAAAAAAAAAAAAAAAAAAAAAAD/CzoAAAAAAAAAAAAAAAAAAAAAAAAAAAAAAAAAAAAAAAAAAAAAAAAAAAAAAP8AAAAAAAAAAAEAAAAAAAAAAAAAAP8AAAABAAAAAAAAAAAAAAAARX8AAAECAAAA/wAAuoAAAAAAAAAAAAAAAAAA/wAAAAEAAAAAAgAAAAAAAAAAAAAAAAAlewAAAAAAAAAAAAAAAADWugAA48gAAOy7AAAAAAAAAAAAAAAAAAAAAAAAAAAAAAAAAAABAAAAAAAAAAAAAAD/ACiAAQAGGgAA/vQAAPLqAAARIQAA0WcAAAAAAAAAAAAAAAAAAAAAAAAAAP8AAAABAAAAAAIAAAAAAAAAAAAAAAAAAQUAAAH/AAABBQAABf4AANFnAAAAAAAAAAAAAAAAAAAAAAC3OwAAAAAAAAAAAAAAAAAAAgAAAAAAAAAAAAAAAAAGEQAA/PQAAAD+AAADBwAAAAAAAAAAAAAAAAAAAAAAtjwAAOv6AAAAAAAAAAAAAAAAAAAEAAAAAAAAAAAAAAAAAAADAAD99QAABRcAAAYOAAAAAAAAAAAAAAAAALE6AADN7wAAwOkAAAAAAAAAAAAAAAAAAAIAAAAAAAAAAAAAAAAAAAEAAP77AAD/AAAAAw4AAAAAAAAAAAAAAAAA7/sAAHzU/wB1JQAAAAAAAAAAAAAAAAAAAgAAAAAAAAAAAAAAAAAA/AAA/vkAAP7/AAAAAQAAAAAAAAAAAAAAAAANBAAAuD0BAP8EAAAAAAAAAAAAAAAAAAACAAAAAAAAAAAAAAAAAPDOAAD33wAABAAAAAD/AAAAAAAAAAAAAAAAAAoDAAD2/QAAy+4AAAAAAAAAAAAAAAAAAAAAAAAAAAAAAAAAAP////8A////AAA7nQAAKo0AAAAAAAAAAAAAAAAAji8AAFUcAAD///8AAAAA/wAAAAAAAAAAAQAAAAAAAAAAAAAA/wAAAAAAAAAAAAAAAAAAAAAAAAAAAAAAAAAAAAAAAAAAAAAAAAAAAAAAAAAAAAAAAQAAAACwXlNWjGvfdAAAAABJRU5ErkJggg==;" vertex="1" parent="mb-hIErEgklaRNoRJ_JB-1">
          <mxGeometry x="510" y="147" width="16" height="16" as="geometry" />
        </mxCell>
        <mxCell id="URukfjZAChJFvkBxV5kh-9" value="" style="shape=image;verticalLabelPosition=bottom;labelBackgroundColor=default;verticalAlign=top;aspect=fixed;imageAspect=0;image=data:image/png,iVBORw0KGgoAAAANSUhEUgAAABAAAAAQCAYAAAAf8/9hAAAAAXNSR0IArs4c6QAAAAlwSFlzAAALEwAACxMBAJqcGAAAAAd0SU1FB9gFAQkHCXupyRsAAAAZdEVYdENvbW1lbnQAQ3JlYXRlZCB3aXRoIEdJTVBXgQ4XAAAEG0lEQVQ4EQEQBO/7AQAAAAAAAAAAAAAA/wAAAAAAAAAAAAAAAAAAAAAAAAAAAAAAAAAAAAAAAAAAAAAAAAAAAAAAAAAAAAAAAQAAAAAAAAAAAAAAAAAAAAD/AAAAAAAAAAAAAAAAAAAAAAAAAAAAAAAAAAAAAAAAAAAAAAAAAAAAAAAAAP8AAAAAAAAAAAIAAAAAAAAAAAAAAABAfwAARoIAAAAAAAAAAAAAAAAAAAAAAAAAAAAAAAAAAAAAAABFgAAAAAAAAAAAAAAAAAAAAAAAAAAAAAAAAAAA/0V/AAAAAAAAAAAAAAAAAAAAAAAAAAAAAAAAAAAAAAAAAAAAAAAAAAAAAAD/AAAAAAAAAAAAAAAAAAAAAAAAAAD/CzoAAAAAAAAAAAAAAAAAAAAAAAAAAAAAAAAAAAAAAAAAAAAAAAAAAAAAAP8AAAAAAAAAAAEAAAAAAAAAAAAAAP8AAAABAAAAAAAAAAAAAAAARX8AAAECAAAA/wAAuoAAAAAAAAAAAAAAAAAA/wAAAAEAAAAAAgAAAAAAAAAAAAAAAAAlewAAAAAAAAAAAAAAAADWugAA48gAAOy7AAAAAAAAAAAAAAAAAAAAAAAAAAAAAAAAAAABAAAAAAAAAAAAAAD/ACiAAQAGGgAA/vQAAPLqAAARIQAA0WcAAAAAAAAAAAAAAAAAAAAAAAAAAP8AAAABAAAAAAIAAAAAAAAAAAAAAAAAAQUAAAH/AAABBQAABf4AANFnAAAAAAAAAAAAAAAAAAAAAAC3OwAAAAAAAAAAAAAAAAAAAgAAAAAAAAAAAAAAAAAGEQAA/PQAAAD+AAADBwAAAAAAAAAAAAAAAAAAAAAAtjwAAOv6AAAAAAAAAAAAAAAAAAAEAAAAAAAAAAAAAAAAAAADAAD99QAABRcAAAYOAAAAAAAAAAAAAAAAALE6AADN7wAAwOkAAAAAAAAAAAAAAAAAAAIAAAAAAAAAAAAAAAAAAAEAAP77AAD/AAAAAw4AAAAAAAAAAAAAAAAA7/sAAHzU/wB1JQAAAAAAAAAAAAAAAAAAAgAAAAAAAAAAAAAAAAAA/AAA/vkAAP7/AAAAAQAAAAAAAAAAAAAAAAANBAAAuD0BAP8EAAAAAAAAAAAAAAAAAAACAAAAAAAAAAAAAAAAAPDOAAD33wAABAAAAAD/AAAAAAAAAAAAAAAAAAoDAAD2/QAAy+4AAAAAAAAAAAAAAAAAAAAAAAAAAAAAAAAAAP////8A////AAA7nQAAKo0AAAAAAAAAAAAAAAAAji8AAFUcAAD///8AAAAA/wAAAAAAAAAAAQAAAAAAAAAAAAAA/wAAAAAAAAAAAAAAAAAAAAAAAAAAAAAAAAAAAAAAAAAAAAAAAAAAAAAAAAAAAAAAAQAAAACwXlNWjGvfdAAAAABJRU5ErkJggg==;" vertex="1" parent="mb-hIErEgklaRNoRJ_JB-1">
          <mxGeometry x="460" y="107" width="16" height="16" as="geometry" />
        </mxCell>
        <mxCell id="URukfjZAChJFvkBxV5kh-10" value="" style="shape=image;verticalLabelPosition=bottom;labelBackgroundColor=default;verticalAlign=top;aspect=fixed;imageAspect=0;image=data:image/png,iVBORw0KGgoAAAANSUhEUgAAABAAAAAQCAMAAAAoLQ9TAAAABGdBTUEAALGPC/xhBQAAAwBQTFRFAAAAAAAAAAAAAAAAAAAAAAAAAAAAAAAAAAAAAAAAAAAAAAAAAAAAAAAAAAAAAAAAAAAAAAAAAAAAAAAAAAAAAAAAAAAAAAAAAAAAAAAAAAAAAAAAAAAAAAAAAAAAAAAAAAAAAAAAAAAAAAAAAAAAAAAAAAAAAAAAAAAAAAAAAAAAAAAAAAAAAAAAAAAAAAAAAAAAAAAAAAAAAAAAAAAAAAAAAAAAAAAAAAAAAAAAAAAAAAAAAAAAAAAAAAAAAAAAAAAAAAAAAAAAAAAAAAAAAAAAAAAAAAAAAAAAAAAAAAAAAAAAAAAAAAAAAAAAAAAAAAAAAAAAAAAAAAAAAAAAAAAAAAAAAAAAAAAAAAAAAAAAAAAAAAAAAAAAAAAAAAAAAAAAAAAAAAAAAAAAAAAAAAAAAAAAAAAAAAAAAAAAAAAAAAAAAAAAAAAAAAAAAAAAAAAAAAAAAAAAAAAAAAAAAAAAAAAAAAAAAAAAAAAAAAAAAAAAAAAAAAAAAAAAAAAAAAAAAAAAAAAAAAAAAAAAAAAAAAAAAAAAAAAAAAAAAAAAAAAAAAAAAAAAAAAAAAAAAAAAAAAAAAAAAAAAAAAAAAAAAAAAAAAAAAAAAAAAAAAAAAAAAAAAAAAAAAAAAAAAAAAAAAAAAAAAAAAAAAAAAAAAAAAAAAAAAAAAAAAAAAAAAAAAAAAAAAAAAAAAAAAAAAAAAAAAAAAAAAAAAAAAAAAAAAAAAAAAAAAAAAAAAAAAAAAAAAAAAAAAAAAAAAAAAAAAAAAAAAAAAAAAAAAAAAAAAAAAAAAAAAAAAAAAAAAAAAAAAAAAAAAAAAAAAAAAAAAAAAAAAAAAAAAAAAAAAAAAAAAAAAAAAAAAAAAAAAAAAAAAAAAAAAAAAAAAAAAAAAAAAAAAAAAAAAAAAAAAAAAAAAAAAAAAAAAAAAAAAAAAAAAAAAAAAAAAAAAAAAAAAAAAAAAAAAAAAAAAAAAAAAAAAAAAAAAAAAAAAAAAAAAAAAAAAAAAAAAAAAAAAAAAszD0iAAAAQB0Uk5T////////////////////////////////////////////////////////////////////////////////////////////////////////////////////////////////////////////////////////////////////////////////////////////////////////////////////////////////////////////////////////////////////////////////////////////////////////////////////////////////////////////////////AFP3ByUAAAAJcEhZcwAAEnEAABJxAfPceo4AAAAZdEVYdFNvZnR3YXJlAFBhaW50Lk5FVCB2My41LjVJivzgAAAAH0lEQVQoU2P4jwYYqCbAAAZg45BISgXQDUVyLjWcDgDq9OsVq6M9NAAAAABJRU5ErkJggg==;" vertex="1" parent="mb-hIErEgklaRNoRJ_JB-1">
          <mxGeometry x="260" y="194" width="16" height="16" as="geometry" />
        </mxCell>
        <mxCell id="URukfjZAChJFvkBxV5kh-11" value="" style="shape=image;verticalLabelPosition=bottom;labelBackgroundColor=default;verticalAlign=top;aspect=fixed;imageAspect=0;image=data:image/png,iVBORw0KGgoAAAANSUhEUgAAABAAAAAQCAMAAAAoLQ9TAAAABGdBTUEAALGPC/xhBQAAAwBQTFRFAAAAAAAAAAAAAAAAAAAAAAAAAAAAAAAAAAAAAAAAAAAAAAAAAAAAAAAAAAAAAAAAAAAAAAAAAAAAAAAAAAAAAAAAAAAAAAAAAAAAAAAAAAAAAAAAAAAAAAAAAAAAAAAAAAAAAAAAAAAAAAAAAAAAAAAAAAAAAAAAAAAAAAAAAAAAAAAAAAAAAAAAAAAAAAAAAAAAAAAAAAAAAAAAAAAAAAAAAAAAAAAAAAAAAAAAAAAAAAAAAAAAAAAAAAAAAAAAAAAAAAAAAAAAAAAAAAAAAAAAAAAAAAAAAAAAAAAAAAAAAAAAAAAAAAAAAAAAAAAAAAAAAAAAAAAAAAAAAAAAAAAAAAAAAAAAAAAAAAAAAAAAAAAAAAAAAAAAAAAAAAAAAAAAAAAAAAAAAAAAAAAAAAAAAAAAAAAAAAAAAAAAAAAAAAAAAAAAAAAAAAAAAAAAAAAAAAAAAAAAAAAAAAAAAAAAAAAAAAAAAAAAAAAAAAAAAAAAAAAAAAAAAAAAAAAAAAAAAAAAAAAAAAAAAAAAAAAAAAAAAAAAAAAAAAAAAAAAAAAAAAAAAAAAAAAAAAAAAAAAAAAAAAAAAAAAAAAAAAAAAAAAAAAAAAAAAAAAAAAAAAAAAAAAAAAAAAAAAAAAAAAAAAAAAAAAAAAAAAAAAAAAAAAAAAAAAAAAAAAAAAAAAAAAAAAAAAAAAAAAAAAAAAAAAAAAAAAAAAAAAAAAAAAAAAAAAAAAAAAAAAAAAAAAAAAAAAAAAAAAAAAAAAAAAAAAAAAAAAAAAAAAAAAAAAAAAAAAAAAAAAAAAAAAAAAAAAAAAAAAAAAAAAAAAAAAAAAAAAAAAAAAAAAAAAAAAAAAAAAAAAAAAAAAAAAAAAAAAAAAAAAAAAAAAAAAAAAAAAAAAAAAAAAAAAAAAAAAAAAAAAAAAAAAAAAAAAAAAAAAAAAAAAAAAAAAAAAAAAAAAAAAAAAAAAAAAAAAAAAAAAAAAAAAAAAAAAAAAAAAAAAAAAAAAAAAAAAAAAAAAAAAszD0iAAAAQB0Uk5T////////////////////////////////////////////////////////////////////////////////////////////////////////////////////////////////////////////////////////////////////////////////////////////////////////////////////////////////////////////////////////////////////////////////////////////////////////////////////////////////////////////////////AFP3ByUAAAAJcEhZcwAAEnEAABJxAfPceo4AAAAZdEVYdFNvZnR3YXJlAFBhaW50Lk5FVCB2My41LjVJivzgAAAAH0lEQVQoU2P4jwYYqCbAAAZg45BISgXQDUVyLjWcDgDq9OsVq6M9NAAAAABJRU5ErkJggg==;" vertex="1" parent="mb-hIErEgklaRNoRJ_JB-1">
          <mxGeometry x="260" y="100" width="16" height="16" as="geometry" />
        </mxCell>
        <mxCell id="URukfjZAChJFvkBxV5kh-12" value="" style="shape=image;verticalLabelPosition=bottom;labelBackgroundColor=default;verticalAlign=top;aspect=fixed;imageAspect=0;image=data:image/png,iVBORw0KGgoAAAANSUhEUgAAABAAAAAQCAMAAAAoLQ9TAAAABGdBTUEAALGPC/xhBQAAAwBQTFRFAAAAAAAAAAAAAAAAAAAAAAAAAAAAAAAAAAAAAAAAAAAAAAAAAAAAAAAAAAAAAAAAAAAAAAAAAAAAAAAAAAAAAAAAAAAAAAAAAAAAAAAAAAAAAAAAAAAAAAAAAAAAAAAAAAAAAAAAAAAAAAAAAAAAAAAAAAAAAAAAAAAAAAAAAAAAAAAAAAAAAAAAAAAAAAAAAAAAAAAAAAAAAAAAAAAAAAAAAAAAAAAAAAAAAAAAAAAAAAAAAAAAAAAAAAAAAAAAAAAAAAAAAAAAAAAAAAAAAAAAAAAAAAAAAAAAAAAAAAAAAAAAAAAAAAAAAAAAAAAAAAAAAAAAAAAAAAAAAAAAAAAAAAAAAAAAAAAAAAAAAAAAAAAAAAAAAAAAAAAAAAAAAAAAAAAAAAAAAAAAAAAAAAAAAAAAAAAAAAAAAAAAAAAAAAAAAAAAAAAAAAAAAAAAAAAAAAAAAAAAAAAAAAAAAAAAAAAAAAAAAAAAAAAAAAAAAAAAAAAAAAAAAAAAAAAAAAAAAAAAAAAAAAAAAAAAAAAAAAAAAAAAAAAAAAAAAAAAAAAAAAAAAAAAAAAAAAAAAAAAAAAAAAAAAAAAAAAAAAAAAAAAAAAAAAAAAAAAAAAAAAAAAAAAAAAAAAAAAAAAAAAAAAAAAAAAAAAAAAAAAAAAAAAAAAAAAAAAAAAAAAAAAAAAAAAAAAAAAAAAAAAAAAAAAAAAAAAAAAAAAAAAAAAAAAAAAAAAAAAAAAAAAAAAAAAAAAAAAAAAAAAAAAAAAAAAAAAAAAAAAAAAAAAAAAAAAAAAAAAAAAAAAAAAAAAAAAAAAAAAAAAAAAAAAAAAAAAAAAAAAAAAAAAAAAAAAAAAAAAAAAAAAAAAAAAAAAAAAAAAAAAAAAAAAAAAAAAAAAAAAAAAAAAAAAAAAAAAAAAAAAAAAAAAAAAAAAAAAAAAAAAAAAAAAAAAAAAAAAAAAAAAAAAAAAAAAAAAAAAAAAAAAAAAAAAAAAAAAAAAAAAAAAAAAAAAAAAAAAAAAAAAszD0iAAAAQB0Uk5T////////////////////////////////////////////////////////////////////////////////////////////////////////////////////////////////////////////////////////////////////////////////////////////////////////////////////////////////////////////////////////////////////////////////////////////////////////////////////////////////////////////////////AFP3ByUAAAAJcEhZcwAAEnEAABJxAfPceo4AAAAZdEVYdFNvZnR3YXJlAFBhaW50Lk5FVCB2My41LjVJivzgAAAAH0lEQVQoU2P4jwYYqCbAAAZg45BISgXQDUVyLjWcDgDq9OsVq6M9NAAAAABJRU5ErkJggg==;" vertex="1" parent="mb-hIErEgklaRNoRJ_JB-1">
          <mxGeometry x="90" y="74" width="16" height="16" as="geometry" />
        </mxCell>
        <mxCell id="URukfjZAChJFvkBxV5kh-13" value="" style="shape=image;verticalLabelPosition=bottom;labelBackgroundColor=default;verticalAlign=top;aspect=fixed;imageAspect=0;image=data:image/png,iVBORw0KGgoAAAANSUhEUgAAABAAAAAQCAMAAAAoLQ9TAAAABGdBTUEAALGPC/xhBQAAAwBQTFRFAAAAAAAAAAAAAAAAAAAAAAAAAAAAAAAAAAAAAAAAAAAAAAAAAAAAAAAAAAAAAAAAAAAAAAAAAAAAAAAAAAAAAAAAAAAAAAAAAAAAAAAAAAAAAAAAAAAAAAAAAAAAAAAAAAAAAAAAAAAAAAAAAAAAAAAAAAAAAAAAAAAAAAAAAAAAAAAAAAAAAAAAAAAAAAAAAAAAAAAAAAAAAAAAAAAAAAAAAAAAAAAAAAAAAAAAAAAAAAAAAAAAAAAAAAAAAAAAAAAAAAAAAAAAAAAAAAAAAAAAAAAAAAAAAAAAAAAAAAAAAAAAAAAAAAAAAAAAAAAAAAAAAAAAAAAAAAAAAAAAAAAAAAAAAAAAAAAAAAAAAAAAAAAAAAAAAAAAAAAAAAAAAAAAAAAAAAAAAAAAAAAAAAAAAAAAAAAAAAAAAAAAAAAAAAAAAAAAAAAAAAAAAAAAAAAAAAAAAAAAAAAAAAAAAAAAAAAAAAAAAAAAAAAAAAAAAAAAAAAAAAAAAAAAAAAAAAAAAAAAAAAAAAAAAAAAAAAAAAAAAAAAAAAAAAAAAAAAAAAAAAAAAAAAAAAAAAAAAAAAAAAAAAAAAAAAAAAAAAAAAAAAAAAAAAAAAAAAAAAAAAAAAAAAAAAAAAAAAAAAAAAAAAAAAAAAAAAAAAAAAAAAAAAAAAAAAAAAAAAAAAAAAAAAAAAAAAAAAAAAAAAAAAAAAAAAAAAAAAAAAAAAAAAAAAAAAAAAAAAAAAAAAAAAAAAAAAAAAAAAAAAAAAAAAAAAAAAAAAAAAAAAAAAAAAAAAAAAAAAAAAAAAAAAAAAAAAAAAAAAAAAAAAAAAAAAAAAAAAAAAAAAAAAAAAAAAAAAAAAAAAAAAAAAAAAAAAAAAAAAAAAAAAAAAAAAAAAAAAAAAAAAAAAAAAAAAAAAAAAAAAAAAAAAAAAAAAAAAAAAAAAAAAAAAAAAAAAAAAAAAAAAAAAAAAAAAAAAAAAAAAAAAAAAAAAAAAAAAAAAAAAAAAAAAAAAAAAAAAAAAAAAszD0iAAAAQB0Uk5T////////////////////////////////////////////////////////////////////////////////////////////////////////////////////////////////////////////////////////////////////////////////////////////////////////////////////////////////////////////////////////////////////////////////////////////////////////////////////////////////////////////////////AFP3ByUAAAAJcEhZcwAAEnEAABJxAfPceo4AAAAZdEVYdFNvZnR3YXJlAFBhaW50Lk5FVCB2My41LjVJivzgAAAAH0lEQVQoU2P4jwYYqCbAAAZg45BISgXQDUVyLjWcDgDq9OsVq6M9NAAAAABJRU5ErkJggg==;" vertex="1" parent="mb-hIErEgklaRNoRJ_JB-1">
          <mxGeometry x="11" y="44" width="16" height="16" as="geometry" />
        </mxCell>
        <mxCell id="URukfjZAChJFvkBxV5kh-14" value="" style="shape=image;verticalLabelPosition=bottom;labelBackgroundColor=default;verticalAlign=top;aspect=fixed;imageAspect=0;image=data:image/png,iVBORw0KGgoAAAANSUhEUgAAABAAAAAQCAMAAAAoLQ9TAAAABGdBTUEAALGPC/xhBQAAAwBQTFRFAAAAAAAAAAAAAAAAAAAAAAAAAAAAAAAAAAAAAAAAAAAAAAAAAAAAAAAAAAAAAAAAAAAAAAAAAAAAAAAAAAAAAAAAAAAAAAAAAAAAAAAAAAAAAAAAAAAAAAAAAAAAAAAAAAAAAAAAAAAAAAAAAAAAAAAAAAAAAAAAAAAAAAAAAAAAAAAAAAAAAAAAAAAAAAAAAAAAAAAAAAAAAAAAAAAAAAAAAAAAAAAAAAAAAAAAAAAAAAAAAAAAAAAAAAAAAAAAAAAAAAAAAAAAAAAAAAAAAAAAAAAAAAAAAAAAAAAAAAAAAAAAAAAAAAAAAAAAAAAAAAAAAAAAAAAAAAAAAAAAAAAAAAAAAAAAAAAAAAAAAAAAAAAAAAAAAAAAAAAAAAAAAAAAAAAAAAAAAAAAAAAAAAAAAAAAAAAAAAAAAAAAAAAAAAAAAAAAAAAAAAAAAAAAAAAAAAAAAAAAAAAAAAAAAAAAAAAAAAAAAAAAAAAAAAAAAAAAAAAAAAAAAAAAAAAAAAAAAAAAAAAAAAAAAAAAAAAAAAAAAAAAAAAAAAAAAAAAAAAAAAAAAAAAAAAAAAAAAAAAAAAAAAAAAAAAAAAAAAAAAAAAAAAAAAAAAAAAAAAAAAAAAAAAAAAAAAAAAAAAAAAAAAAAAAAAAAAAAAAAAAAAAAAAAAAAAAAAAAAAAAAAAAAAAAAAAAAAAAAAAAAAAAAAAAAAAAAAAAAAAAAAAAAAAAAAAAAAAAAAAAAAAAAAAAAAAAAAAAAAAAAAAAAAAAAAAAAAAAAAAAAAAAAAAAAAAAAAAAAAAAAAAAAAAAAAAAAAAAAAAAAAAAAAAAAAAAAAAAAAAAAAAAAAAAAAAAAAAAAAAAAAAAAAAAAAAAAAAAAAAAAAAAAAAAAAAAAAAAAAAAAAAAAAAAAAAAAAAAAAAAAAAAAAAAAAAAAAAAAAAAAAAAAAAAAAAAAAAAAAAAAAAAAAAAAAAAAAAAAAAAAAAAAAAAAAAAAAAAAAAAAAAAAAAAAAAAAAAAAAAAAAszD0iAAAAQB0Uk5T////////////////////////////////////////////////////////////////////////////////////////////////////////////////////////////////////////////////////////////////////////////////////////////////////////////////////////////////////////////////////////////////////////////////////////////////////////////////////////////////////////////////////AFP3ByUAAAAJcEhZcwAAEnEAABJxAfPceo4AAAAZdEVYdFNvZnR3YXJlAFBhaW50Lk5FVCB2My41LjVJivzgAAAAH0lEQVQoU2P4jwYYqCbAAAZg45BISgXQDUVyLjWcDgDq9OsVq6M9NAAAAABJRU5ErkJggg==;" vertex="1" parent="mb-hIErEgklaRNoRJ_JB-1">
          <mxGeometry x="390" y="74" width="16" height="16" as="geometry" />
        </mxCell>
        <mxCell id="URukfjZAChJFvkBxV5kh-15" value="" style="shape=image;verticalLabelPosition=bottom;labelBackgroundColor=default;verticalAlign=top;aspect=fixed;imageAspect=0;image=data:image/png,iVBORw0KGgoAAAANSUhEUgAAABAAAAAQCAMAAAAoLQ9TAAAABGdBTUEAALGPC/xhBQAAAwBQTFRFAAAAAAAAAAAAAAAAAAAAAAAAAAAAAAAAAAAAAAAAAAAAAAAAAAAAAAAAAAAAAAAAAAAAAAAAAAAAAAAAAAAAAAAAAAAAAAAAAAAAAAAAAAAAAAAAAAAAAAAAAAAAAAAAAAAAAAAAAAAAAAAAAAAAAAAAAAAAAAAAAAAAAAAAAAAAAAAAAAAAAAAAAAAAAAAAAAAAAAAAAAAAAAAAAAAAAAAAAAAAAAAAAAAAAAAAAAAAAAAAAAAAAAAAAAAAAAAAAAAAAAAAAAAAAAAAAAAAAAAAAAAAAAAAAAAAAAAAAAAAAAAAAAAAAAAAAAAAAAAAAAAAAAAAAAAAAAAAAAAAAAAAAAAAAAAAAAAAAAAAAAAAAAAAAAAAAAAAAAAAAAAAAAAAAAAAAAAAAAAAAAAAAAAAAAAAAAAAAAAAAAAAAAAAAAAAAAAAAAAAAAAAAAAAAAAAAAAAAAAAAAAAAAAAAAAAAAAAAAAAAAAAAAAAAAAAAAAAAAAAAAAAAAAAAAAAAAAAAAAAAAAAAAAAAAAAAAAAAAAAAAAAAAAAAAAAAAAAAAAAAAAAAAAAAAAAAAAAAAAAAAAAAAAAAAAAAAAAAAAAAAAAAAAAAAAAAAAAAAAAAAAAAAAAAAAAAAAAAAAAAAAAAAAAAAAAAAAAAAAAAAAAAAAAAAAAAAAAAAAAAAAAAAAAAAAAAAAAAAAAAAAAAAAAAAAAAAAAAAAAAAAAAAAAAAAAAAAAAAAAAAAAAAAAAAAAAAAAAAAAAAAAAAAAAAAAAAAAAAAAAAAAAAAAAAAAAAAAAAAAAAAAAAAAAAAAAAAAAAAAAAAAAAAAAAAAAAAAAAAAAAAAAAAAAAAAAAAAAAAAAAAAAAAAAAAAAAAAAAAAAAAAAAAAAAAAAAAAAAAAAAAAAAAAAAAAAAAAAAAAAAAAAAAAAAAAAAAAAAAAAAAAAAAAAAAAAAAAAAAAAAAAAAAAAAAAAAAAAAAAAAAAAAAAAAAAAAAAAAAAAAAAAAAAAAAAAAAAAAAAAAAAszD0iAAAAQB0Uk5T////////////////////////////////////////////////////////////////////////////////////////////////////////////////////////////////////////////////////////////////////////////////////////////////////////////////////////////////////////////////////////////////////////////////////////////////////////////////////////////////////////////////////AFP3ByUAAAAJcEhZcwAAEnEAABJxAfPceo4AAAAZdEVYdFNvZnR3YXJlAFBhaW50Lk5FVCB2My41LjVJivzgAAAAH0lEQVQoU2P4jwYYqCbAAAZg45BISgXQDUVyLjWcDgDq9OsVq6M9NAAAAABJRU5ErkJggg==;" vertex="1" parent="mb-hIErEgklaRNoRJ_JB-1">
          <mxGeometry x="350" y="98" width="16" height="16" as="geometry" />
        </mxCell>
        <mxCell id="URukfjZAChJFvkBxV5kh-16" value="" style="shape=image;verticalLabelPosition=bottom;labelBackgroundColor=default;verticalAlign=top;aspect=fixed;imageAspect=0;image=data:image/png,iVBORw0KGgoAAAANSUhEUgAAABAAAAAQCAMAAAAoLQ9TAAAABGdBTUEAALGPC/xhBQAAAwBQTFRFAAAAAAAAAAAAAAAAAAAAAAAAAAAAAAAAAAAAAAAAAAAAAAAAAAAAAAAAAAAAAAAAAAAAAAAAAAAAAAAAAAAAAAAAAAAAAAAAAAAAAAAAAAAAAAAAAAAAAAAAAAAAAAAAAAAAAAAAAAAAAAAAAAAAAAAAAAAAAAAAAAAAAAAAAAAAAAAAAAAAAAAAAAAAAAAAAAAAAAAAAAAAAAAAAAAAAAAAAAAAAAAAAAAAAAAAAAAAAAAAAAAAAAAAAAAAAAAAAAAAAAAAAAAAAAAAAAAAAAAAAAAAAAAAAAAAAAAAAAAAAAAAAAAAAAAAAAAAAAAAAAAAAAAAAAAAAAAAAAAAAAAAAAAAAAAAAAAAAAAAAAAAAAAAAAAAAAAAAAAAAAAAAAAAAAAAAAAAAAAAAAAAAAAAAAAAAAAAAAAAAAAAAAAAAAAAAAAAAAAAAAAAAAAAAAAAAAAAAAAAAAAAAAAAAAAAAAAAAAAAAAAAAAAAAAAAAAAAAAAAAAAAAAAAAAAAAAAAAAAAAAAAAAAAAAAAAAAAAAAAAAAAAAAAAAAAAAAAAAAAAAAAAAAAAAAAAAAAAAAAAAAAAAAAAAAAAAAAAAAAAAAAAAAAAAAAAAAAAAAAAAAAAAAAAAAAAAAAAAAAAAAAAAAAAAAAAAAAAAAAAAAAAAAAAAAAAAAAAAAAAAAAAAAAAAAAAAAAAAAAAAAAAAAAAAAAAAAAAAAAAAAAAAAAAAAAAAAAAAAAAAAAAAAAAAAAAAAAAAAAAAAAAAAAAAAAAAAAAAAAAAAAAAAAAAAAAAAAAAAAAAAAAAAAAAAAAAAAAAAAAAAAAAAAAAAAAAAAAAAAAAAAAAAAAAAAAAAAAAAAAAAAAAAAAAAAAAAAAAAAAAAAAAAAAAAAAAAAAAAAAAAAAAAAAAAAAAAAAAAAAAAAAAAAAAAAAAAAAAAAAAAAAAAAAAAAAAAAAAAAAAAAAAAAAAAAAAAAAAAAAAAAAAAAAAAAAAAAAAAAAAAAAAAAAAAAAAAAAAAAAAAAszD0iAAAAQB0Uk5T////////////////////////////////////////////////////////////////////////////////////////////////////////////////////////////////////////////////////////////////////////////////////////////////////////////////////////////////////////////////////////////////////////////////////////////////////////////////////////////////////////////////////AFP3ByUAAAAJcEhZcwAAEnEAABJxAfPceo4AAAAZdEVYdFNvZnR3YXJlAFBhaW50Lk5FVCB2My41LjVJivzgAAAAH0lEQVQoU2P4jwYYqCbAAAZg45BISgXQDUVyLjWcDgDq9OsVq6M9NAAAAABJRU5ErkJggg==;" vertex="1" parent="mb-hIErEgklaRNoRJ_JB-1">
          <mxGeometry x="340" y="153" width="16" height="16" as="geometry" />
        </mxCell>
        <mxCell id="URukfjZAChJFvkBxV5kh-17" value="" style="shape=image;verticalLabelPosition=bottom;labelBackgroundColor=default;verticalAlign=top;aspect=fixed;imageAspect=0;image=data:image/png,iVBORw0KGgoAAAANSUhEUgAAABAAAAAQCAMAAAAoLQ9TAAAABGdBTUEAALGPC/xhBQAAAwBQTFRFAAAAAAAAAAAAAAAAAAAAAAAAAAAAAAAAAAAAAAAAAAAAAAAAAAAAAAAAAAAAAAAAAAAAAAAAAAAAAAAAAAAAAAAAAAAAAAAAAAAAAAAAAAAAAAAAAAAAAAAAAAAAAAAAAAAAAAAAAAAAAAAAAAAAAAAAAAAAAAAAAAAAAAAAAAAAAAAAAAAAAAAAAAAAAAAAAAAAAAAAAAAAAAAAAAAAAAAAAAAAAAAAAAAAAAAAAAAAAAAAAAAAAAAAAAAAAAAAAAAAAAAAAAAAAAAAAAAAAAAAAAAAAAAAAAAAAAAAAAAAAAAAAAAAAAAAAAAAAAAAAAAAAAAAAAAAAAAAAAAAAAAAAAAAAAAAAAAAAAAAAAAAAAAAAAAAAAAAAAAAAAAAAAAAAAAAAAAAAAAAAAAAAAAAAAAAAAAAAAAAAAAAAAAAAAAAAAAAAAAAAAAAAAAAAAAAAAAAAAAAAAAAAAAAAAAAAAAAAAAAAAAAAAAAAAAAAAAAAAAAAAAAAAAAAAAAAAAAAAAAAAAAAAAAAAAAAAAAAAAAAAAAAAAAAAAAAAAAAAAAAAAAAAAAAAAAAAAAAAAAAAAAAAAAAAAAAAAAAAAAAAAAAAAAAAAAAAAAAAAAAAAAAAAAAAAAAAAAAAAAAAAAAAAAAAAAAAAAAAAAAAAAAAAAAAAAAAAAAAAAAAAAAAAAAAAAAAAAAAAAAAAAAAAAAAAAAAAAAAAAAAAAAAAAAAAAAAAAAAAAAAAAAAAAAAAAAAAAAAAAAAAAAAAAAAAAAAAAAAAAAAAAAAAAAAAAAAAAAAAAAAAAAAAAAAAAAAAAAAAAAAAAAAAAAAAAAAAAAAAAAAAAAAAAAAAAAAAAAAAAAAAAAAAAAAAAAAAAAAAAAAAAAAAAAAAAAAAAAAAAAAAAAAAAAAAAAAAAAAAAAAAAAAAAAAAAAAAAAAAAAAAAAAAAAAAAAAAAAAAAAAAAAAAAAAAAAAAAAAAAAAAAAAAAAAAAAAAAAAAAAAAAAAAAAAAAAAAAAAAAAAAAszD0iAAAAQB0Uk5T////////////////////////////////////////////////////////////////////////////////////////////////////////////////////////////////////////////////////////////////////////////////////////////////////////////////////////////////////////////////////////////////////////////////////////////////////////////////////////////////////////////////////AFP3ByUAAAAJcEhZcwAAEnEAABJxAfPceo4AAAAZdEVYdFNvZnR3YXJlAFBhaW50Lk5FVCB2My41LjVJivzgAAAAH0lEQVQoU2P4jwYYqCbAAAZg45BISgXQDUVyLjWcDgDq9OsVq6M9NAAAAABJRU5ErkJggg==;" vertex="1" parent="mb-hIErEgklaRNoRJ_JB-1">
          <mxGeometry x="310" y="178" width="16" height="16" as="geometry" />
        </mxCell>
        <mxCell id="URukfjZAChJFvkBxV5kh-18" value="" style="shape=image;verticalLabelPosition=bottom;labelBackgroundColor=default;verticalAlign=top;aspect=fixed;imageAspect=0;image=data:image/png,iVBORw0KGgoAAAANSUhEUgAAABAAAAAQCAMAAAAoLQ9TAAAABGdBTUEAALGPC/xhBQAAAwBQTFRFAAAAAAAAAAAAAAAAAAAAAAAAAAAAAAAAAAAAAAAAAAAAAAAAAAAAAAAAAAAAAAAAAAAAAAAAAAAAAAAAAAAAAAAAAAAAAAAAAAAAAAAAAAAAAAAAAAAAAAAAAAAAAAAAAAAAAAAAAAAAAAAAAAAAAAAAAAAAAAAAAAAAAAAAAAAAAAAAAAAAAAAAAAAAAAAAAAAAAAAAAAAAAAAAAAAAAAAAAAAAAAAAAAAAAAAAAAAAAAAAAAAAAAAAAAAAAAAAAAAAAAAAAAAAAAAAAAAAAAAAAAAAAAAAAAAAAAAAAAAAAAAAAAAAAAAAAAAAAAAAAAAAAAAAAAAAAAAAAAAAAAAAAAAAAAAAAAAAAAAAAAAAAAAAAAAAAAAAAAAAAAAAAAAAAAAAAAAAAAAAAAAAAAAAAAAAAAAAAAAAAAAAAAAAAAAAAAAAAAAAAAAAAAAAAAAAAAAAAAAAAAAAAAAAAAAAAAAAAAAAAAAAAAAAAAAAAAAAAAAAAAAAAAAAAAAAAAAAAAAAAAAAAAAAAAAAAAAAAAAAAAAAAAAAAAAAAAAAAAAAAAAAAAAAAAAAAAAAAAAAAAAAAAAAAAAAAAAAAAAAAAAAAAAAAAAAAAAAAAAAAAAAAAAAAAAAAAAAAAAAAAAAAAAAAAAAAAAAAAAAAAAAAAAAAAAAAAAAAAAAAAAAAAAAAAAAAAAAAAAAAAAAAAAAAAAAAAAAAAAAAAAAAAAAAAAAAAAAAAAAAAAAAAAAAAAAAAAAAAAAAAAAAAAAAAAAAAAAAAAAAAAAAAAAAAAAAAAAAAAAAAAAAAAAAAAAAAAAAAAAAAAAAAAAAAAAAAAAAAAAAAAAAAAAAAAAAAAAAAAAAAAAAAAAAAAAAAAAAAAAAAAAAAAAAAAAAAAAAAAAAAAAAAAAAAAAAAAAAAAAAAAAAAAAAAAAAAAAAAAAAAAAAAAAAAAAAAAAAAAAAAAAAAAAAAAAAAAAAAAAAAAAAAAAAAAAAAAAAAAAAAAAAAAAAAAAAAAAAAAAAAAAszD0iAAAAQB0Uk5T////////////////////////////////////////////////////////////////////////////////////////////////////////////////////////////////////////////////////////////////////////////////////////////////////////////////////////////////////////////////////////////////////////////////////////////////////////////////////////////////////////////////////AFP3ByUAAAAJcEhZcwAAEnEAABJxAfPceo4AAAAZdEVYdFNvZnR3YXJlAFBhaW50Lk5FVCB2My41LjVJivzgAAAAH0lEQVQoU2P4jwYYqCbAAAZg45BISgXQDUVyLjWcDgDq9OsVq6M9NAAAAABJRU5ErkJggg==;" vertex="1" parent="mb-hIErEgklaRNoRJ_JB-1">
          <mxGeometry x="406" y="250" width="16" height="16" as="geometry" />
        </mxCell>
        <mxCell id="URukfjZAChJFvkBxV5kh-19" value="" style="shape=image;verticalLabelPosition=bottom;labelBackgroundColor=default;verticalAlign=top;aspect=fixed;imageAspect=0;image=data:image/png,iVBORw0KGgoAAAANSUhEUgAAABAAAAAQCAMAAAAoLQ9TAAAABGdBTUEAALGPC/xhBQAAAwBQTFRFAAAAAAAAAAAAAAAAAAAAAAAAAAAAAAAAAAAAAAAAAAAAAAAAAAAAAAAAAAAAAAAAAAAAAAAAAAAAAAAAAAAAAAAAAAAAAAAAAAAAAAAAAAAAAAAAAAAAAAAAAAAAAAAAAAAAAAAAAAAAAAAAAAAAAAAAAAAAAAAAAAAAAAAAAAAAAAAAAAAAAAAAAAAAAAAAAAAAAAAAAAAAAAAAAAAAAAAAAAAAAAAAAAAAAAAAAAAAAAAAAAAAAAAAAAAAAAAAAAAAAAAAAAAAAAAAAAAAAAAAAAAAAAAAAAAAAAAAAAAAAAAAAAAAAAAAAAAAAAAAAAAAAAAAAAAAAAAAAAAAAAAAAAAAAAAAAAAAAAAAAAAAAAAAAAAAAAAAAAAAAAAAAAAAAAAAAAAAAAAAAAAAAAAAAAAAAAAAAAAAAAAAAAAAAAAAAAAAAAAAAAAAAAAAAAAAAAAAAAAAAAAAAAAAAAAAAAAAAAAAAAAAAAAAAAAAAAAAAAAAAAAAAAAAAAAAAAAAAAAAAAAAAAAAAAAAAAAAAAAAAAAAAAAAAAAAAAAAAAAAAAAAAAAAAAAAAAAAAAAAAAAAAAAAAAAAAAAAAAAAAAAAAAAAAAAAAAAAAAAAAAAAAAAAAAAAAAAAAAAAAAAAAAAAAAAAAAAAAAAAAAAAAAAAAAAAAAAAAAAAAAAAAAAAAAAAAAAAAAAAAAAAAAAAAAAAAAAAAAAAAAAAAAAAAAAAAAAAAAAAAAAAAAAAAAAAAAAAAAAAAAAAAAAAAAAAAAAAAAAAAAAAAAAAAAAAAAAAAAAAAAAAAAAAAAAAAAAAAAAAAAAAAAAAAAAAAAAAAAAAAAAAAAAAAAAAAAAAAAAAAAAAAAAAAAAAAAAAAAAAAAAAAAAAAAAAAAAAAAAAAAAAAAAAAAAAAAAAAAAAAAAAAAAAAAAAAAAAAAAAAAAAAAAAAAAAAAAAAAAAAAAAAAAAAAAAAAAAAAAAAAAAAAAAAAAAAAAAAAAAAAAAAAAAAAAAAAAAAAAAAAAAszD0iAAAAQB0Uk5T////////////////////////////////////////////////////////////////////////////////////////////////////////////////////////////////////////////////////////////////////////////////////////////////////////////////////////////////////////////////////////////////////////////////////////////////////////////////////////////////////////////////////AFP3ByUAAAAJcEhZcwAAEnEAABJxAfPceo4AAAAZdEVYdFNvZnR3YXJlAFBhaW50Lk5FVCB2My41LjVJivzgAAAAH0lEQVQoU2P4jwYYqCbAAAZg45BISgXQDUVyLjWcDgDq9OsVq6M9NAAAAABJRU5ErkJggg==;" vertex="1" parent="mb-hIErEgklaRNoRJ_JB-1">
          <mxGeometry x="390" y="140" width="16" height="16" as="geometry" />
        </mxCell>
        <mxCell id="URukfjZAChJFvkBxV5kh-20" value="" style="shape=image;verticalLabelPosition=bottom;labelBackgroundColor=default;verticalAlign=top;aspect=fixed;imageAspect=0;image=data:image/png,iVBORw0KGgoAAAANSUhEUgAAABAAAAAQCAMAAAAoLQ9TAAAABGdBTUEAALGPC/xhBQAAAwBQTFRFAAAAAAAAAAAAAAAAAAAAAAAAAAAAAAAAAAAAAAAAAAAAAAAAAAAAAAAAAAAAAAAAAAAAAAAAAAAAAAAAAAAAAAAAAAAAAAAAAAAAAAAAAAAAAAAAAAAAAAAAAAAAAAAAAAAAAAAAAAAAAAAAAAAAAAAAAAAAAAAAAAAAAAAAAAAAAAAAAAAAAAAAAAAAAAAAAAAAAAAAAAAAAAAAAAAAAAAAAAAAAAAAAAAAAAAAAAAAAAAAAAAAAAAAAAAAAAAAAAAAAAAAAAAAAAAAAAAAAAAAAAAAAAAAAAAAAAAAAAAAAAAAAAAAAAAAAAAAAAAAAAAAAAAAAAAAAAAAAAAAAAAAAAAAAAAAAAAAAAAAAAAAAAAAAAAAAAAAAAAAAAAAAAAAAAAAAAAAAAAAAAAAAAAAAAAAAAAAAAAAAAAAAAAAAAAAAAAAAAAAAAAAAAAAAAAAAAAAAAAAAAAAAAAAAAAAAAAAAAAAAAAAAAAAAAAAAAAAAAAAAAAAAAAAAAAAAAAAAAAAAAAAAAAAAAAAAAAAAAAAAAAAAAAAAAAAAAAAAAAAAAAAAAAAAAAAAAAAAAAAAAAAAAAAAAAAAAAAAAAAAAAAAAAAAAAAAAAAAAAAAAAAAAAAAAAAAAAAAAAAAAAAAAAAAAAAAAAAAAAAAAAAAAAAAAAAAAAAAAAAAAAAAAAAAAAAAAAAAAAAAAAAAAAAAAAAAAAAAAAAAAAAAAAAAAAAAAAAAAAAAAAAAAAAAAAAAAAAAAAAAAAAAAAAAAAAAAAAAAAAAAAAAAAAAAAAAAAAAAAAAAAAAAAAAAAAAAAAAAAAAAAAAAAAAAAAAAAAAAAAAAAAAAAAAAAAAAAAAAAAAAAAAAAAAAAAAAAAAAAAAAAAAAAAAAAAAAAAAAAAAAAAAAAAAAAAAAAAAAAAAAAAAAAAAAAAAAAAAAAAAAAAAAAAAAAAAAAAAAAAAAAAAAAAAAAAAAAAAAAAAAAAAAAAAAAAAAAAAAAAAAAAAAAAAAAAAAAAAAAAAAAAszD0iAAAAQB0Uk5T////////////////////////////////////////////////////////////////////////////////////////////////////////////////////////////////////////////////////////////////////////////////////////////////////////////////////////////////////////////////////////////////////////////////////////////////////////////////////////////////////////////////////AFP3ByUAAAAJcEhZcwAAEnEAABJxAfPceo4AAAAZdEVYdFNvZnR3YXJlAFBhaW50Lk5FVCB2My41LjVJivzgAAAAH0lEQVQoU2P4jwYYqCbAAAZg45BISgXQDUVyLjWcDgDq9OsVq6M9NAAAAABJRU5ErkJggg==;" vertex="1" parent="mb-hIErEgklaRNoRJ_JB-1">
          <mxGeometry x="510" y="114" width="16" height="16" as="geometry" />
        </mxCell>
      </root>
    </mxGraphModel>
  </diagram>
</mxfile>
